<svg width="350" height="70" viewBox="0 0 350 70" fill="none" xmlns="http://www.w3.org/2000/svg">
<rect width="350" height="70" rx="24" fill="url(#paint0_linear_645_312)" fill-opacity="0.81"/>
<rect width="350" height="70" rx="24" fill="white" fill-opacity="0.1"/>
<path d="M18.384 33.216C17.008 33.216 15.936 32.928 15.168 32.352C14.416 31.776 13.888 31 13.584 30.024C13.296 29.048 13.152 27.96 13.152 26.76V19.896C13.152 18.584 13.296 17.44 13.584 16.464C13.888 15.488 14.416 14.736 15.168 14.208C15.936 13.664 17.008 13.392 18.384 13.392C19.6 13.392 20.56 13.616 21.264 14.064C21.984 14.512 22.496 15.152 22.8 15.984C23.12 16.816 23.28 17.816 23.28 18.984V20.52H20.712V19.152C20.712 18.432 20.672 17.8 20.592 17.256C20.528 16.696 20.336 16.264 20.016 15.96C19.696 15.656 19.16 15.504 18.408 15.504C17.64 15.504 17.08 15.672 16.728 16.008C16.376 16.328 16.144 16.792 16.032 17.4C15.936 17.992 15.888 18.688 15.888 19.488V27.192C15.888 28.168 15.968 28.944 16.128 29.52C16.288 30.08 16.552 30.48 16.92 30.72C17.288 30.96 17.784 31.08 18.408 31.08C19.144 31.08 19.672 30.92 19.992 30.6C20.312 30.264 20.512 29.808 20.592 29.232C20.672 28.656 20.712 27.984 20.712 27.216V25.776H23.28V27.216C23.28 28.4 23.136 29.448 22.848 30.36C22.56 31.256 22.064 31.96 21.36 32.472C20.656 32.968 19.664 33.216 18.384 33.216ZM25.8636 33V13.56H28.5756V21.648H29.3436C30.7516 21.648 31.9116 21.816 32.8236 22.152C33.7356 22.472 34.4156 23.04 34.8636 23.856C35.3276 24.672 35.5596 25.824 35.5596 27.312C35.5596 28.32 35.4396 29.184 35.1996 29.904C34.9596 30.608 34.5836 31.192 34.0716 31.656C33.5756 32.12 32.9436 32.464 32.1756 32.688C31.4236 32.896 30.5196 33 29.4636 33H25.8636ZM28.5756 31.056H29.4636C30.2796 31.056 30.9436 30.968 31.4556 30.792C31.9836 30.6 32.3756 30.232 32.6316 29.688C32.8876 29.144 33.0156 28.344 33.0156 27.288C33.0156 25.96 32.7596 25.016 32.2476 24.456C31.7356 23.896 30.7916 23.616 29.4156 23.616H28.5756V31.056ZM37.5756 33V13.56H40.2876V33H37.5756ZM43.3245 33V13.56H50.8365V15.576H46.0365V33H43.3245ZM52.512 33V13.56H57.336C58.504 13.56 59.432 13.776 60.12 14.208C60.824 14.624 61.336 15.232 61.656 16.032C61.976 16.832 62.136 17.8 62.136 18.936C62.136 19.96 61.952 20.848 61.584 21.6C61.232 22.352 60.704 22.936 60 23.352C59.296 23.752 58.416 23.952 57.36 23.952H55.224V33H52.512ZM55.224 22.008H56.472C57.256 22.008 57.872 21.92 58.32 21.744C58.768 21.568 59.088 21.264 59.28 20.832C59.472 20.384 59.568 19.76 59.568 18.96C59.568 18.032 59.496 17.32 59.352 16.824C59.224 16.328 58.944 15.984 58.512 15.792C58.08 15.6 57.408 15.504 56.496 15.504H55.224V22.008ZM61.9091 33L66.0371 13.56H68.6531L72.8051 33H70.2371L69.3491 28.104H65.3891L64.4531 33H61.9091ZM65.7491 26.16H68.9891L67.3571 17.4L65.7491 26.16ZM75.9293 33V15.576H72.6413V13.56H81.8333V15.576H78.6413V33H75.9293ZM83.5198 33V13.56H86.2318V21.648H86.9998C88.4078 21.648 89.5678 21.816 90.4798 22.152C91.3918 22.472 92.0718 23.04 92.5198 23.856C92.9838 24.672 93.2158 25.824 93.2158 27.312C93.2158 28.32 93.0958 29.184 92.8558 29.904C92.6158 30.608 92.2398 31.192 91.7278 31.656C91.2318 32.12 90.5998 32.464 89.8318 32.688C89.0798 32.896 88.1758 33 87.1198 33H83.5198ZM86.2318 31.056H87.1198C87.9358 31.056 88.5998 30.968 89.1118 30.792C89.6398 30.6 90.0318 30.232 90.2878 29.688C90.5438 29.144 90.6718 28.344 90.6718 27.288C90.6718 25.96 90.4158 25.016 89.9038 24.456C89.3918 23.896 88.4478 23.616 87.0718 23.616H86.2318V31.056ZM95.8832 28.848L95.0672 13.56H97.6592L96.7952 28.848H95.8832ZM95.0672 33V30.36H97.6592V33H95.0672Z" fill="white"/>
<path d="M13.008 56V43.04H14.816V48.8H15.488L17.808 43.04H19.616L17.056 49.2L19.936 56H18.128L15.504 49.68H14.816V56H13.008ZM22.8499 56.128C22.1672 56.128 21.6285 55.9893 21.2339 55.712C20.8392 55.4347 20.5565 55.04 20.3859 54.528C20.2259 54.016 20.1459 53.4133 20.1459 52.72V50.032C20.1459 49.3387 20.2259 48.736 20.3859 48.224C20.5565 47.712 20.8392 47.3173 21.2339 47.04C21.6285 46.7627 22.1672 46.624 22.8499 46.624C23.5325 46.624 24.0659 46.7627 24.4499 47.04C24.8445 47.3173 25.1219 47.712 25.2819 48.224C25.4525 48.736 25.5379 49.3387 25.5379 50.032V52.72C25.5379 53.4133 25.4525 54.016 25.2819 54.528C25.1219 55.04 24.8445 55.4347 24.4499 55.712C24.0659 55.9893 23.5325 56.128 22.8499 56.128ZM22.8499 54.864C23.1805 54.864 23.4099 54.768 23.5379 54.576C23.6765 54.384 23.7565 54.1333 23.7779 53.824C23.8099 53.504 23.8259 53.1733 23.8259 52.832V49.936C23.8259 49.584 23.8099 49.2533 23.7779 48.944C23.7565 48.6347 23.6765 48.384 23.5379 48.192C23.4099 47.9893 23.1805 47.888 22.8499 47.888C22.5192 47.888 22.2845 47.9893 22.1459 48.192C22.0072 48.384 21.9219 48.6347 21.8899 48.944C21.8685 49.2533 21.8579 49.584 21.8579 49.936V52.832C21.8579 53.1733 21.8685 53.504 21.8899 53.824C21.9219 54.1333 22.0072 54.384 22.1459 54.576C22.2845 54.768 22.5192 54.864 22.8499 54.864ZM26.6227 56V46.752H28.3348V50.64H30.5268V46.752H32.2388V56H30.5268V51.888H28.3348V56H26.6227ZM33.4865 56V46.752H36.0785C36.7078 46.752 37.1985 46.8587 37.5505 47.072C37.9132 47.2747 38.1692 47.5467 38.3185 47.888C38.4785 48.2187 38.5638 48.576 38.5745 48.96C38.5852 49.4187 38.5105 49.8293 38.3505 50.192C38.1905 50.5547 37.8598 50.8107 37.3585 50.96C37.7425 51.0347 38.0358 51.1947 38.2385 51.44C38.4518 51.6747 38.5958 51.9573 38.6705 52.288C38.7558 52.6187 38.7985 52.96 38.7985 53.312C38.7985 53.8453 38.7185 54.3147 38.5585 54.72C38.4092 55.1253 38.1425 55.44 37.7585 55.664C37.3852 55.888 36.8518 56 36.1585 56H33.4865ZM35.1665 54.704H35.7745C36.0198 54.704 36.2438 54.672 36.4465 54.608C36.6492 54.5333 36.8092 54.3893 36.9265 54.176C37.0545 53.9627 37.1185 53.6533 37.1185 53.248C37.1185 52.768 37.0598 52.4213 36.9425 52.208C36.8358 51.984 36.6865 51.8453 36.4945 51.792C36.3132 51.7387 36.0998 51.712 35.8545 51.712H35.1665V54.704ZM35.1665 50.48H35.9985C36.3292 50.48 36.5905 50.384 36.7825 50.192C36.9745 50 37.0705 49.6587 37.0705 49.168C37.0705 48.7307 36.9585 48.4267 36.7345 48.256C36.5105 48.0853 36.2065 48 35.8225 48H35.1665V50.48ZM42.2071 56.128C41.4818 56.128 40.9218 55.9893 40.5271 55.712C40.1325 55.424 39.8551 55.008 39.6951 54.464C39.5458 53.9093 39.4711 53.232 39.4711 52.432V50.32C39.4711 49.4987 39.5511 48.816 39.7111 48.272C39.8711 47.728 40.1485 47.3173 40.5431 47.04C40.9485 46.7627 41.5031 46.624 42.2071 46.624C42.9858 46.624 43.5565 46.784 43.9191 47.104C44.2925 47.424 44.5378 47.888 44.6551 48.496C44.7725 49.0933 44.8311 49.8133 44.8311 50.656V51.408H41.1831V53.264C41.1831 53.6373 41.2151 53.9413 41.2791 54.176C41.3538 54.4107 41.4658 54.5867 41.6151 54.704C41.7751 54.8107 41.9778 54.864 42.2231 54.864C42.4791 54.864 42.6711 54.8053 42.7991 54.688C42.9378 54.56 43.0285 54.384 43.0711 54.16C43.1245 53.9253 43.1511 53.6533 43.1511 53.344V52.784H44.8151V53.136C44.8151 54.064 44.6178 54.7947 44.2231 55.328C43.8285 55.8613 43.1565 56.128 42.2071 56.128ZM41.1831 50.48H43.1511V49.648C43.1511 49.264 43.1298 48.944 43.0871 48.688C43.0445 48.4213 42.9538 48.224 42.8151 48.096C42.6871 47.9573 42.4791 47.888 42.1911 47.888C41.9138 47.888 41.7005 47.952 41.5511 48.08C41.4125 48.208 41.3165 48.4267 41.2631 48.736C41.2098 49.0347 41.1831 49.4507 41.1831 49.984V50.48ZM45.9015 59.04V46.752H47.6135V47.488C47.8162 47.2533 48.0615 47.0507 48.3495 46.88C48.6375 46.7093 48.9788 46.624 49.3735 46.624C49.8535 46.624 50.2322 46.752 50.5095 47.008C50.7975 47.2533 51.0108 47.568 51.1495 47.952C51.2882 48.3253 51.3788 48.7093 51.4215 49.104C51.4642 49.488 51.4855 49.8187 51.4855 50.096V52.336C51.4855 52.9867 51.4215 53.6053 51.2935 54.192C51.1655 54.768 50.9308 55.2373 50.5895 55.6C50.2588 55.952 49.7895 56.128 49.1815 56.128C48.8508 56.128 48.5575 56.048 48.3015 55.888C48.0455 55.7173 47.8162 55.5253 47.6135 55.312V59.04H45.9015ZM48.8455 54.784C49.1442 54.784 49.3575 54.6773 49.4855 54.464C49.6135 54.24 49.6935 53.9413 49.7255 53.568C49.7575 53.1947 49.7735 52.784 49.7735 52.336V50.096C49.7735 49.712 49.7522 49.36 49.7095 49.04C49.6668 48.7093 49.5762 48.448 49.4375 48.256C49.2988 48.064 49.0802 47.968 48.7815 47.968C48.5575 47.968 48.3442 48.016 48.1415 48.112C47.9388 48.208 47.7628 48.32 47.6135 48.448V54.368C47.7735 54.4853 47.9548 54.5867 48.1575 54.672C48.3602 54.7467 48.5895 54.784 48.8455 54.784ZM53.6021 56V48.032H51.8741V46.752H57.0581V48.032H55.3141V56H53.6021ZM57.6134 56V46.752H59.0534V52.976L61.8374 46.752H63.1814V56H61.7734V49.728L59.0054 56H57.6134ZM64.4459 59.04V46.752H66.1579V47.488C66.3605 47.2533 66.6059 47.0507 66.8939 46.88C67.1819 46.7093 67.5232 46.624 67.9179 46.624C68.3979 46.624 68.7765 46.752 69.0539 47.008C69.3419 47.2533 69.5552 47.568 69.6939 47.952C69.8325 48.3253 69.9232 48.7093 69.9659 49.104C70.0085 49.488 70.0299 49.8187 70.0299 50.096V52.336C70.0299 52.9867 69.9659 53.6053 69.8379 54.192C69.7099 54.768 69.4752 55.2373 69.1339 55.6C68.8032 55.952 68.3339 56.128 67.7259 56.128C67.3952 56.128 67.1019 56.048 66.8459 55.888C66.5899 55.7173 66.3605 55.5253 66.1579 55.312V59.04H64.4459ZM67.3899 54.784C67.6885 54.784 67.9019 54.6773 68.0299 54.464C68.1579 54.24 68.2379 53.9413 68.2699 53.568C68.3019 53.1947 68.3179 52.784 68.3179 52.336V50.096C68.3179 49.712 68.2965 49.36 68.2539 49.04C68.2112 48.7093 68.1205 48.448 67.9819 48.256C67.8432 48.064 67.6245 47.968 67.3259 47.968C67.1019 47.968 66.8885 48.016 66.6859 48.112C66.4832 48.208 66.3072 48.32 66.1579 48.448V54.368C66.3179 54.4853 66.4992 54.5867 66.7019 54.672C66.9045 54.7467 67.1339 54.784 67.3899 54.784ZM70.9469 58.32V57.008C71.3629 57.008 71.6935 56.9867 71.9389 56.944C72.1842 56.912 72.3602 56.8427 72.4669 56.736C72.5735 56.64 72.6269 56.5013 72.6269 56.32C72.6269 56.224 72.5895 56.0107 72.5149 55.68C72.4402 55.3493 72.3602 54.9973 72.2749 54.624L70.4189 46.752H72.1469L73.3949 53.664L74.5949 46.752H76.3229L74.1149 56.512C74.0189 56.96 73.8429 57.312 73.5869 57.568C73.3309 57.8347 73.0002 58.0267 72.5949 58.144C72.2002 58.2613 71.7202 58.32 71.1549 58.32H70.9469ZM76.8765 56V46.752H78.3165V52.976L81.1005 46.752H82.4445V56H81.0365V49.728L78.2685 56H76.8765ZM79.7085 45.744C78.9405 45.744 78.3965 45.536 78.0765 45.12C77.7672 44.704 77.6125 44.1867 77.6125 43.568H78.6045C78.6152 43.952 78.7005 44.2507 78.8605 44.464C79.0312 44.6667 79.3138 44.768 79.7085 44.768C80.1138 44.768 80.3965 44.6613 80.5565 44.448C80.7272 44.2347 80.8125 43.9413 80.8125 43.568H81.8205C81.8205 44.1867 81.6605 44.704 81.3405 45.12C81.0312 45.536 80.4872 45.744 79.7085 45.744ZM86.8852 56V46.752H92.2612V56H90.5492V48.048H88.5972V56H86.8852ZM93.5146 59.04V46.752H95.2266V47.488C95.4293 47.2533 95.6746 47.0507 95.9626 46.88C96.2506 46.7093 96.592 46.624 96.9866 46.624C97.4666 46.624 97.8453 46.752 98.1226 47.008C98.4106 47.2533 98.624 47.568 98.7626 47.952C98.9013 48.3253 98.992 48.7093 99.0346 49.104C99.0773 49.488 99.0986 49.8187 99.0986 50.096V52.336C99.0986 52.9867 99.0346 53.6053 98.9066 54.192C98.7786 54.768 98.544 55.2373 98.2026 55.6C97.872 55.952 97.4026 56.128 96.7946 56.128C96.464 56.128 96.1706 56.048 95.9146 55.888C95.6586 55.7173 95.4293 55.5253 95.2266 55.312V59.04H93.5146ZM96.4586 54.784C96.7573 54.784 96.9706 54.6773 97.0986 54.464C97.2266 54.24 97.3066 53.9413 97.3386 53.568C97.3706 53.1947 97.3866 52.784 97.3866 52.336V50.096C97.3866 49.712 97.3653 49.36 97.3226 49.04C97.28 48.7093 97.1893 48.448 97.0506 48.256C96.912 48.064 96.6933 47.968 96.3946 47.968C96.1706 47.968 95.9573 48.016 95.7546 48.112C95.552 48.208 95.376 48.32 95.2266 48.448V54.368C95.3866 54.4853 95.568 54.5867 95.7706 54.672C95.9733 54.7467 96.2026 54.784 96.4586 54.784ZM100.175 56V46.752H101.615V52.976L104.399 46.752H105.743V56H104.335V49.728L101.567 56H100.175ZM107.008 56V46.752H109.6C110.229 46.752 110.72 46.8587 111.072 47.072C111.434 47.2747 111.69 47.5467 111.84 47.888C112 48.2187 112.085 48.576 112.096 48.96C112.106 49.4187 112.032 49.8293 111.872 50.192C111.712 50.5547 111.381 50.8107 110.88 50.96C111.264 51.0347 111.557 51.1947 111.76 51.44C111.973 51.6747 112.117 51.9573 112.192 52.288C112.277 52.6187 112.32 52.96 112.32 53.312C112.32 53.8453 112.24 54.3147 112.08 54.72C111.93 55.1253 111.664 55.44 111.28 55.664C110.906 55.888 110.373 56 109.68 56H107.008ZM108.688 54.704H109.296C109.541 54.704 109.765 54.672 109.968 54.608C110.17 54.5333 110.33 54.3893 110.448 54.176C110.576 53.9627 110.64 53.6533 110.64 53.248C110.64 52.768 110.581 52.4213 110.464 52.208C110.357 51.984 110.208 51.8453 110.016 51.792C109.834 51.7387 109.621 51.712 109.376 51.712H108.688V54.704ZM108.688 50.48H109.52C109.85 50.48 110.112 50.384 110.304 50.192C110.496 50 110.592 49.6587 110.592 49.168C110.592 48.7307 110.48 48.4267 110.256 48.256C110.032 48.0853 109.728 48 109.344 48H108.688V50.48ZM113.168 56V46.752H114.88V50.576C114.902 50.576 114.928 50.576 114.96 50.576C115.003 50.576 115.04 50.576 115.072 50.576C115.104 50.576 115.131 50.576 115.152 50.576C115.782 50.5867 116.315 50.6347 116.752 50.72C117.2 50.7947 117.563 50.9333 117.84 51.136C118.118 51.328 118.32 51.6 118.448 51.952C118.576 52.2933 118.64 52.736 118.64 53.28C118.64 53.7813 118.576 54.208 118.448 54.56C118.32 54.9013 118.112 55.1787 117.824 55.392C117.536 55.6053 117.158 55.76 116.688 55.856C116.219 55.952 115.648 56 114.976 56H113.168ZM114.88 54.992H114.976C115.52 54.992 115.947 54.944 116.256 54.848C116.566 54.752 116.784 54.5813 116.912 54.336C117.04 54.08 117.104 53.7227 117.104 53.264C117.104 52.848 117.046 52.5227 116.928 52.288C116.822 52.0427 116.619 51.8667 116.32 51.76C116.032 51.6427 115.611 51.584 115.056 51.584C115.046 51.584 115.019 51.584 114.976 51.584C114.934 51.584 114.902 51.584 114.88 51.584V54.992ZM119.696 56V46.752H121.408V56H119.696ZM126.129 56V52.336C125.926 52.3573 125.724 52.3787 125.521 52.4C125.318 52.4213 125.11 52.432 124.897 52.432C124.438 52.432 124.017 52.368 123.633 52.24C123.249 52.112 122.945 51.8827 122.721 51.552C122.497 51.2107 122.385 50.736 122.385 50.128V46.752H124.097V50.144C124.097 50.4747 124.172 50.736 124.321 50.928C124.481 51.12 124.806 51.216 125.297 51.216C125.425 51.216 125.558 51.2107 125.697 51.2C125.836 51.1787 125.98 51.1573 126.129 51.136V46.752H127.841V56H126.129ZM129.099 56V46.752H130.811V50.656H131.291L133.035 46.752H134.795L132.859 51.232L134.827 56H133.035L131.291 51.68H130.811V56H129.099ZM135.26 56V46.752H136.7V52.976L139.484 46.752H140.828V56H139.42V49.728L136.652 56H135.26ZM145.268 56V46.752H147.86C148.49 46.752 148.98 46.8587 149.332 47.072C149.695 47.2747 149.951 47.5467 150.1 47.888C150.26 48.2187 150.346 48.576 150.356 48.96C150.367 49.4187 150.292 49.8293 150.132 50.192C149.972 50.5547 149.642 50.8107 149.14 50.96C149.524 51.0347 149.818 51.1947 150.02 51.44C150.234 51.6747 150.378 51.9573 150.452 52.288C150.538 52.6187 150.58 52.96 150.58 53.312C150.58 53.8453 150.5 54.3147 150.34 54.72C150.191 55.1253 149.924 55.44 149.54 55.664C149.167 55.888 148.634 56 147.94 56H145.268ZM146.948 54.704H147.556C147.802 54.704 148.026 54.672 148.228 54.608C148.431 54.5333 148.591 54.3893 148.708 54.176C148.836 53.9627 148.9 53.6533 148.9 53.248C148.9 52.768 148.842 52.4213 148.724 52.208C148.618 51.984 148.468 51.8453 148.276 51.792C148.095 51.7387 147.882 51.712 147.636 51.712H146.948V54.704ZM146.948 50.48H147.78C148.111 50.48 148.372 50.384 148.564 50.192C148.756 50 148.852 49.6587 148.852 49.168C148.852 48.7307 148.74 48.4267 148.516 48.256C148.292 48.0853 147.988 48 147.604 48H146.948V50.48ZM154.605 56V46.752H156.317V50.64H158.509V46.752H160.221V56H158.509V51.888H156.317V56H154.605ZM162.861 56.128C162.498 56.128 162.178 56.0267 161.901 55.824C161.624 55.6107 161.405 55.344 161.245 55.024C161.085 54.6933 161.005 54.3467 161.005 53.984C161.005 53.408 161.101 52.9227 161.293 52.528C161.485 52.1333 161.746 51.8027 162.077 51.536C162.418 51.2587 162.808 51.0187 163.245 50.816C163.693 50.6133 164.162 50.416 164.653 50.224V49.568C164.653 49.1947 164.632 48.8853 164.589 48.64C164.546 48.3947 164.456 48.2133 164.317 48.096C164.189 47.968 163.992 47.904 163.725 47.904C163.49 47.904 163.298 47.9573 163.149 48.064C163.01 48.1707 162.909 48.3253 162.845 48.528C162.781 48.72 162.749 48.9493 162.749 49.216V49.68L161.053 49.616C161.074 48.592 161.309 47.84 161.757 47.36C162.205 46.8693 162.898 46.624 163.837 46.624C164.754 46.624 165.405 46.8747 165.789 47.376C166.173 47.8773 166.365 48.6027 166.365 49.552V53.776C166.365 54.064 166.37 54.3413 166.381 54.608C166.402 54.8747 166.424 55.1253 166.445 55.36C166.477 55.584 166.504 55.7973 166.525 56H164.957C164.925 55.8293 164.882 55.616 164.829 55.36C164.786 55.0933 164.754 54.8533 164.733 54.64C164.626 55.0027 164.418 55.344 164.109 55.664C163.81 55.9733 163.394 56.128 162.861 56.128ZM163.533 54.656C163.704 54.656 163.864 54.608 164.013 54.512C164.162 54.416 164.296 54.3093 164.413 54.192C164.53 54.064 164.61 53.9627 164.653 53.888V51.264C164.386 51.4133 164.136 51.5627 163.901 51.712C163.666 51.8613 163.458 52.0213 163.277 52.192C163.106 52.352 162.968 52.5387 162.861 52.752C162.765 52.9547 162.717 53.1893 162.717 53.456C162.717 53.8293 162.786 54.1227 162.925 54.336C163.064 54.5493 163.266 54.656 163.533 54.656ZM167.536 56V46.752H169.248V50.656H169.728L171.472 46.752H173.232L171.296 51.232L173.264 56H171.472L169.728 51.68H169.248V56H167.536ZM176.241 56.128C175.558 56.128 175.019 55.9893 174.625 55.712C174.23 55.4347 173.947 55.04 173.777 54.528C173.617 54.016 173.537 53.4133 173.537 52.72V50.032C173.537 49.3387 173.617 48.736 173.777 48.224C173.947 47.712 174.23 47.3173 174.625 47.04C175.019 46.7627 175.558 46.624 176.241 46.624C176.923 46.624 177.457 46.7627 177.841 47.04C178.235 47.3173 178.513 47.712 178.673 48.224C178.843 48.736 178.929 49.3387 178.929 50.032V52.72C178.929 53.4133 178.843 54.016 178.673 54.528C178.513 55.04 178.235 55.4347 177.841 55.712C177.457 55.9893 176.923 56.128 176.241 56.128ZM176.241 54.864C176.571 54.864 176.801 54.768 176.929 54.576C177.067 54.384 177.147 54.1333 177.169 53.824C177.201 53.504 177.217 53.1733 177.217 52.832V49.936C177.217 49.584 177.201 49.2533 177.169 48.944C177.147 48.6347 177.067 48.384 176.929 48.192C176.801 47.9893 176.571 47.888 176.241 47.888C175.91 47.888 175.675 47.9893 175.537 48.192C175.398 48.384 175.313 48.6347 175.281 48.944C175.259 49.2533 175.249 49.584 175.249 49.936V52.832C175.249 53.1733 175.259 53.504 175.281 53.824C175.313 54.1333 175.398 54.384 175.537 54.576C175.675 54.768 175.91 54.864 176.241 54.864ZM180.013 56V46.752H185.389V56H183.677V48.048H181.725V56H180.013ZM186.051 56.08V54.784C186.371 54.784 186.621 54.72 186.803 54.592C186.995 54.464 187.139 54.2507 187.235 53.952C187.341 53.6427 187.421 53.232 187.475 52.72C187.528 52.1973 187.576 51.5467 187.619 50.768L187.827 46.752H192.675V56H190.963V48.048H189.331L189.187 50.768C189.133 51.824 189.053 52.6987 188.947 53.392C188.851 54.0853 188.696 54.6293 188.483 55.024C188.269 55.408 187.981 55.68 187.619 55.84C187.267 56 186.808 56.08 186.243 56.08H186.051ZM196.488 56.128C195.763 56.128 195.203 55.9893 194.808 55.712C194.414 55.424 194.136 55.008 193.976 54.464C193.827 53.9093 193.752 53.232 193.752 52.432V50.32C193.752 49.4987 193.832 48.816 193.992 48.272C194.152 47.728 194.43 47.3173 194.824 47.04C195.23 46.7627 195.784 46.624 196.488 46.624C197.267 46.624 197.838 46.784 198.2 47.104C198.574 47.424 198.819 47.888 198.936 48.496C199.054 49.0933 199.112 49.8133 199.112 50.656V51.408H195.464V53.264C195.464 53.6373 195.496 53.9413 195.56 54.176C195.635 54.4107 195.747 54.5867 195.896 54.704C196.056 54.8107 196.259 54.864 196.504 54.864C196.76 54.864 196.952 54.8053 197.08 54.688C197.219 54.56 197.31 54.384 197.352 54.16C197.406 53.9253 197.432 53.6533 197.432 53.344V52.784H199.096V53.136C199.096 54.064 198.899 54.7947 198.504 55.328C198.11 55.8613 197.438 56.128 196.488 56.128ZM195.464 50.48H197.432V49.648C197.432 49.264 197.411 48.944 197.368 48.688C197.326 48.4213 197.235 48.224 197.096 48.096C196.968 47.9573 196.76 47.888 196.472 47.888C196.195 47.888 195.982 47.952 195.832 48.08C195.694 48.208 195.598 48.4267 195.544 48.736C195.491 49.0347 195.464 49.4507 195.464 49.984V50.48ZM200.183 56V46.752H201.895V50.64H204.087V46.752H205.799V56H204.087V51.888H201.895V56H200.183ZM207.046 56V46.752H208.486V52.976L211.27 46.752H212.614V56H211.206V49.728L208.438 56H207.046ZM213.175 56L214.919 52.08C214.62 51.9627 214.375 51.7867 214.183 51.552C214.002 51.3173 213.868 51.0293 213.783 50.688C213.698 50.3467 213.655 49.9627 213.655 49.536C213.655 49.0453 213.719 48.624 213.847 48.272C213.975 47.92 214.178 47.632 214.455 47.408C214.732 47.184 215.1 47.0187 215.559 46.912C216.018 46.8053 216.583 46.752 217.255 46.752H219.047V56H217.351V52.352C217.18 52.352 217.036 52.352 216.919 52.352C216.802 52.3413 216.674 52.3307 216.535 52.32L215.015 56H213.175ZM217.159 51.36C217.18 51.36 217.212 51.36 217.255 51.36C217.308 51.36 217.34 51.36 217.351 51.36V47.728C217.34 47.728 217.308 47.728 217.255 47.728C217.212 47.728 217.186 47.728 217.175 47.728C216.674 47.728 216.274 47.792 215.975 47.92C215.687 48.0373 215.484 48.2293 215.367 48.496C215.25 48.752 215.191 49.0987 215.191 49.536C215.191 50.144 215.324 50.5973 215.591 50.896C215.868 51.1947 216.391 51.3493 217.159 51.36ZM220.785 53.232L220.241 43.04H221.969L221.393 53.232H220.785ZM220.241 56V54.24H221.969V56H220.241Z" fill="white"/>
<rect x="288" y="10" width="50" height="50" rx="25" fill="white" fill-opacity="0.1"/>
<path d="M303.055 35.1879C302.953 35.6038 303.017 35.8587 303.055 36.2858L307.894 41.7752C308.501 42.2372 308.777 42.6697 309.507 42.8731C310.115 43.0423 310.513 43.0423 311.12 42.8731C311.851 42.6697 312.115 42.2203 312.734 41.7752C312.734 41.7752 322.93 31.2246 322.95 30.7964C322.97 30.3681 323.052 30.1144 322.95 29.6985C322.734 28.8161 322.201 28.2722 321.337 28.0517C320.929 27.9477 320.681 28.0291 320.261 28.0517L310.583 38.4816L305.743 33.5411C305.325 33.4984 305.075 33.4371 304.668 33.5411C303.804 33.7617 303.271 34.3055 303.055 35.1879Z" fill="white" fill-opacity="0.5"/>
<defs>
<linearGradient id="paint0_linear_645_312" x1="-91.5" y1="110.224" x2="397.182" y2="29.629" gradientUnits="userSpaceOnUse">
<stop stop-color="#1A136C"/>
<stop offset="1" stop-color="#160F67"/>
</linearGradient>
</defs>
</svg>
