<svg width="80" height="80" viewBox="0 0 80 80" fill="none" xmlns="http://www.w3.org/2000/svg">
<circle cx="40" cy="40.0039" r="40" fill="#281F93"/>
<rect width="80" height="80" rx="40" fill="white" fill-opacity="0.1"/>
<path d="M22.4965 40.5324C22.3142 41.2606 22.4295 41.7068 22.4965 42.4544L31.1609 52.0643C32.2477 52.873 32.7413 53.6302 34.0491 53.9862C35.1372 54.2825 35.8491 54.2825 36.9372 53.9862C38.245 53.6302 38.7171 52.8435 39.8253 52.0643C39.8253 52.0643 58.0812 33.5943 58.1169 32.8446C58.1525 32.0948 58.2992 31.6508 58.1169 30.9226C57.73 29.3779 56.7762 28.4258 55.2287 28.0396C54.4993 27.8576 54.0542 28.0001 53.3033 28.0396L35.9745 46.2984L27.3101 37.6495C26.5619 37.5748 26.1141 37.4675 25.3847 37.6495C23.8372 38.0357 22.8834 38.9878 22.4965 40.5324Z" fill="white" fill-opacity="0.5"/>
</svg>
