<svg width="104" height="104" viewBox="0 0 104 104" fill="none" xmlns="http://www.w3.org/2000/svg">
<g filter="url(#filter0_d_649_543)">
<circle cx="52.8984" cy="52.3984" r="50" fill="url(#paint0_linear_649_543)" fill-opacity="0.8"/>
<rect x="2.89844" y="2.39844" width="100" height="100" rx="50" fill="white" fill-opacity="0.1"/>
<path d="M45.8184 54.4251C46.0386 54.7588 46.3403 55.0306 46.695 55.215C47.0497 55.3993 47.4455 55.49 47.8451 55.4784M47.8451 55.4784C48.3908 55.5268 48.9336 55.3578 49.3555 55.0083C49.7774 54.6588 50.0444 54.157 50.0984 53.6118C50.0477 53.0642 49.7821 52.559 49.3598 52.2066C48.9376 51.8543 48.3929 51.6836 47.8451 51.7318C47.2995 51.7762 46.7583 51.6038 46.3389 51.2519C45.9196 50.8999 45.6559 50.3969 45.6051 49.8518C45.6592 49.3091 45.9243 48.8094 46.3433 48.4602C46.7622 48.1111 47.3016 47.9405 47.8451 47.9851M47.8451 55.4784V56.7318M47.8451 47.9851C48.2453 47.9696 48.6426 48.0586 48.998 48.2433C49.3533 48.428 49.6545 48.702 49.8718 49.0384M47.8451 47.9851V46.7318M55.5651 56.7318V52.7318M60.2318 56.7318V48.7318M38.8984 37.3984H66.8984C66.8984 37.3984 67.8984 37.3984 67.8984 38.3984V41.7318C67.8984 41.7318 67.8984 42.7318 66.8984 42.7318H38.8984C38.8984 42.7318 37.8984 42.7318 37.8984 41.7318V38.3984C37.8984 38.3984 37.8984 37.3984 38.8984 37.3984Z" stroke="white" stroke-width="1.5" stroke-linecap="round" stroke-linejoin="round"/>
<path d="M52.8984 66.0638V60.3971M52.8984 66.0638C54.0051 66.0638 54.8984 66.6638 54.8984 67.3971M52.8984 66.0638C51.7918 66.0638 50.8984 66.6638 50.8984 67.3971M37.8984 60.3971H67.8984M39.8984 42.7305H65.8984V60.3971H39.8984V42.7305Z" stroke="white" stroke-width="1.5" stroke-linecap="round" stroke-linejoin="round"/>
</g>
<defs>
<filter id="filter0_d_649_543" x="-0.00156248" y="-0.00156248" width="103.8" height="103.8" filterUnits="userSpaceOnUse" color-interpolation-filters="sRGB">
<feFlood flood-opacity="0" result="BackgroundImageFix"/>
<feColorMatrix in="SourceAlpha" type="matrix" values="0 0 0 0 0 0 0 0 0 0 0 0 0 0 0 0 0 0 127 0" result="hardAlpha"/>
<feOffset dx="-1" dy="-0.5"/>
<feGaussianBlur stdDeviation="0.95"/>
<feComposite in2="hardAlpha" operator="out"/>
<feColorMatrix type="matrix" values="0 0 0 0 1 0 0 0 0 1 0 0 0 0 1 0 0 0 1 0"/>
<feBlend mode="normal" in2="BackgroundImageFix" result="effect1_dropShadow_649_543"/>
<feBlend mode="normal" in="SourceGraphic" in2="effect1_dropShadow_649_543" result="shape"/>
</filter>
<linearGradient id="paint0_linear_649_543" x1="78.8984" y1="90.8984" x2="23.8984" y2="13.8984" gradientUnits="userSpaceOnUse">
<stop stop-color="#100778"/>
<stop offset="1" stop-color="#761EFB"/>
</linearGradient>
</defs>
</svg>
