<svg width="718" height="715" viewBox="0 0 718 715" fill="none" xmlns="http://www.w3.org/2000/svg">
<g filter="url(#filter0_d_737_1414)">
<rect x="6.32031" y="3.16016" width="710" height="710" rx="355" fill="black" fill-opacity="0.01" shape-rendering="crispEdges"/>
<circle cx="361.82" cy="358.66" r="355.5" fill="url(#paint0_linear_737_1414)" fill-opacity="0.4"/>
<rect x="6.32031" y="3.16016" width="711" height="711" rx="355.5" fill="white" fill-opacity="0.1"/>
<path d="M351.989 254.941C355.348 245.863 368.292 245.863 371.651 254.941L371.807 255.388L391.907 317.25H456.952C467.124 317.25 471.353 330.265 463.124 336.244L410.501 374.477L430.602 436.34C433.745 446.013 422.672 454.058 414.443 448.079L361.82 409.846L309.197 448.079C300.968 454.058 289.896 446.014 293.039 436.34L313.139 374.477L260.517 336.244C252.288 330.265 256.517 317.25 266.688 317.25H331.733L351.834 255.388L351.989 254.941Z" stroke="white" stroke-width="17"/>
</g>
<defs>
<filter id="filter0_d_737_1414" x="0.000312328" y="0.000156164" width="717.32" height="714.16" filterUnits="userSpaceOnUse" color-interpolation-filters="sRGB">
<feFlood flood-opacity="0" result="BackgroundImageFix"/>
<feColorMatrix in="SourceAlpha" type="matrix" values="0 0 0 0 0 0 0 0 0 0 0 0 0 0 0 0 0 0 127 0" result="hardAlpha"/>
<feOffset dx="-6.32" dy="-3.16"/>
<feComposite in2="hardAlpha" operator="out"/>
<feColorMatrix type="matrix" values="0 0 0 0 1 0 0 0 0 1 0 0 0 0 1 0 0 0 1 0"/>
<feBlend mode="normal" in2="BackgroundImageFix" result="effect1_dropShadow_737_1414"/>
<feBlend mode="normal" in="BackgroundImageFix" in2="effect1_dropShadow_737_1414" result="BackgroundImageFix"/>
<feBlend mode="normal" in="SourceGraphic" in2="BackgroundImageFix" result="shape"/>
</filter>
<linearGradient id="paint0_linear_737_1414" x1="546.68" y1="632.395" x2="155.63" y2="84.9252" gradientUnits="userSpaceOnUse">
<stop stop-color="#100778"/>
<stop offset="1" stop-color="#761EFB"/>
</linearGradient>
</defs>
</svg>
