<svg width="200" height="150" viewBox="0 0 200 150" fill="none" xmlns="http://www.w3.org/2000/svg">
<g clip-path="url(#clip0_659_271)">
<rect width="200" height="150" rx="38" fill="white" fill-opacity="0.1"/>
<path d="M102.222 57.1895C100.358 57.1895 98.5278 56.6921 96.9292 55.7505L30.9383 16.9315C24.2103 18.7506 19.9998 24.1077 17.8945 27.8577L84.7366 67.5006C89.5275 70.3176 95.009 71.8056 100.596 71.8056C106.182 71.8056 111.664 70.3176 116.454 67.5006L182.339 28.7559C180.002 24.1077 177.897 20.8934 171.772 17.9517L107.516 55.7505C105.917 56.6921 104.087 57.1895 102.222 57.1895Z" fill="white" fill-opacity="0.28"/>
<path fill-rule="evenodd" clip-rule="evenodd" d="M42.1053 0H163.158C174.325 0 181.877 2.37243 189.773 10.4097C197.669 18.447 200 26.1336 200 37.5V112.5C200 123.866 197.669 131.553 189.773 139.59C181.877 147.628 174.325 150 163.158 150H42.1053C30.9383 150 18.1234 147.628 10.2271 139.59C2.33081 131.553 0 123.866 0 112.5V37.5C0 26.1336 3.38345 19.5184 11.2797 11.4811C19.176 3.44386 30.9383 0 42.1053 0ZM36.8421 16.0714C31.2586 16.0714 25.9038 18.3291 21.9556 22.3477C18.0075 26.3663 15.7895 31.8168 15.7895 37.5V112.5C15.7895 118.183 18.0075 123.634 21.9556 127.652C25.9038 131.671 31.2586 133.929 36.8421 133.929H163.158C168.741 133.929 174.096 131.671 178.044 127.652C181.992 123.634 184.211 118.183 184.211 112.5V37.5C184.211 31.8168 181.992 26.3663 178.044 22.3477C174.096 18.3291 168.741 16.0714 163.158 16.0714H36.8421Z" fill="white" fill-opacity="0.28"/>
</g>
<defs>
<clipPath id="clip0_659_271">
<rect width="200" height="150" rx="38" fill="white"/>
</clipPath>
</defs>
</svg>
