<svg width="390" height="1688" viewBox="0 0 390 1688" fill="none" xmlns="http://www.w3.org/2000/svg">
<g clip-path="url(#clip0_683_590)">
<circle cx="195" cy="1626" r="40" fill="#281F93"/>
<rect x="155" y="1586" width="80" height="80" rx="40" fill="white" fill-opacity="0.1"/>
<path d="M177.497 1626.53C177.314 1627.26 177.429 1627.71 177.497 1628.45L186.161 1638.06C187.248 1638.87 187.741 1639.63 189.049 1639.99C190.137 1640.28 190.849 1640.28 191.937 1639.99C193.245 1639.63 193.717 1638.84 194.825 1638.06C194.825 1638.06 213.081 1619.59 213.117 1618.84C213.153 1618.09 213.299 1617.65 213.117 1616.92C212.73 1615.38 211.776 1614.43 210.229 1614.04C209.499 1613.86 209.054 1614 208.303 1614.04L190.974 1632.3L182.31 1623.65C181.562 1623.57 181.114 1623.47 180.385 1623.65C178.837 1624.04 177.883 1624.99 177.497 1626.53Z" fill="white" fill-opacity="0.5"/>
<rect x="148" y="1278" width="80" height="80" rx="40" fill="white" fill-opacity="0.1"/>
<path d="M170.497 1318.53C170.314 1319.26 170.429 1319.71 170.497 1320.45L179.161 1330.06C180.248 1330.87 180.741 1331.63 182.049 1331.99C183.137 1332.28 183.849 1332.28 184.937 1331.99C186.245 1331.63 186.717 1330.84 187.825 1330.06C187.825 1330.06 206.081 1311.59 206.117 1310.84C206.153 1310.09 206.299 1309.65 206.117 1308.92C205.73 1307.38 204.776 1306.43 203.229 1306.04C202.499 1305.86 202.054 1306 201.303 1306.04L183.974 1324.3L175.31 1315.65C174.562 1315.57 174.114 1315.47 173.385 1315.65C171.837 1316.04 170.883 1316.99 170.497 1318.53Z" fill="white" fill-opacity="0.5"/>
<rect x="179" y="1102" width="80" height="80" rx="40" fill="white" fill-opacity="0.1"/>
<path d="M201.497 1142.53C201.314 1143.26 201.429 1143.71 201.497 1144.45L210.161 1154.06C211.248 1154.87 211.741 1155.63 213.049 1155.99C214.137 1156.28 214.849 1156.28 215.937 1155.99C217.245 1155.63 217.717 1154.84 218.825 1154.06C218.825 1154.06 237.081 1135.59 237.117 1134.84C237.153 1134.09 237.299 1133.65 237.117 1132.92C236.73 1131.38 235.776 1130.43 234.229 1130.04C233.499 1129.86 233.054 1130 232.303 1130.04L214.974 1148.3L206.31 1139.65C205.562 1139.57 205.114 1139.47 204.385 1139.65C202.837 1140.04 201.883 1140.99 201.497 1142.53Z" fill="white" fill-opacity="0.5"/>
<rect x="162" y="951" width="80" height="80" rx="40" fill="white" fill-opacity="0.1"/>
<path d="M184.497 991.532C184.314 992.261 184.429 992.707 184.497 993.454L193.161 1003.06C194.248 1003.87 194.741 1004.63 196.049 1004.99C197.137 1005.28 197.849 1005.28 198.937 1004.99C200.245 1004.63 200.717 1003.84 201.825 1003.06C201.825 1003.06 220.081 984.594 220.117 983.845C220.153 983.095 220.299 982.651 220.117 981.923C219.73 980.378 218.776 979.426 217.229 979.04C216.499 978.858 216.054 979 215.303 979.04L197.974 997.298L189.31 988.649C188.562 988.575 188.114 988.467 187.385 988.649C185.837 989.036 184.883 989.988 184.497 991.532Z" fill="white" fill-opacity="0.5"/>
<circle cx="162" cy="1455" r="40" fill="#281F93"/>
<rect x="122" y="1415" width="80" height="80" rx="40" fill="white" fill-opacity="0.1"/>
<path d="M144.497 1455.53C144.314 1456.26 144.429 1456.71 144.497 1457.45L153.161 1467.06C154.248 1467.87 154.741 1468.63 156.049 1468.99C157.137 1469.28 157.849 1469.28 158.937 1468.99C160.245 1468.63 160.717 1467.84 161.825 1467.06C161.825 1467.06 180.081 1448.59 180.117 1447.84C180.153 1447.09 180.299 1446.65 180.117 1445.92C179.73 1444.38 178.776 1443.43 177.229 1443.04C176.499 1442.86 176.054 1443 175.303 1443.04L157.974 1461.3L149.31 1452.65C148.562 1452.57 148.114 1452.47 147.385 1452.65C145.837 1453.04 144.883 1453.99 144.497 1455.53Z" fill="white" fill-opacity="0.5"/>
<path d="M152.657 1092.06C152.116 1095.08 149.23 1097.09 146.211 1096.55C143.192 1096.01 141.183 1093.12 141.724 1090.1C142.265 1087.08 145.151 1085.08 148.17 1085.62C151.189 1086.16 153.198 1089.04 152.657 1092.06Z" fill="#D9D9D9"/>
<circle cx="99.0239" cy="1399.21" r="5.55352" transform="rotate(19.5779 99.0239 1399.21)" fill="#D9D9D9"/>
<circle cx="116.497" cy="1422.44" r="5.55352" transform="rotate(19.5779 116.497 1422.44)" fill="#D9D9D9"/>
<circle cx="170.923" cy="1112.19" r="5.55352" transform="rotate(-169.842 170.923 1112.19)" fill="#D9D9D9"/>
<circle cx="155.05" cy="1031.45" r="5.55352" transform="rotate(10.1582 155.05 1031.45)" fill="#D9D9D9"/>
<circle cx="105.438" cy="1339.54" r="5.55352" transform="rotate(19.5779 105.438 1339.54)" fill="#D9D9D9"/>
<circle cx="220.243" cy="838.615" r="5.55352" transform="rotate(177.318 220.243 838.615)" fill="#D9D9D9"/>
<path d="M148.911 1062.06C148.37 1065.08 145.484 1067.09 142.465 1066.55C139.446 1066.01 137.437 1063.12 137.978 1060.1C138.519 1057.08 141.404 1055.08 144.423 1055.62C147.443 1056.16 149.451 1059.04 148.911 1062.06Z" fill="#D9D9D9"/>
<path d="M95.3266 1371.5C94.2989 1374.39 91.1231 1375.9 88.2333 1374.87C85.3435 1373.84 83.834 1370.67 84.8617 1367.78C85.8895 1364.89 89.0653 1363.38 91.9551 1364.41C94.8449 1365.44 96.3544 1368.61 95.3266 1371.5Z" fill="#D9D9D9"/>
<circle cx="5.05513" cy="5.05513" r="5.05513" transform="matrix(-0.975116 -0.221694 -0.221694 0.975116 242.723 1590.92)" fill="#D9D9D9"/>
<path d="M262.724 1540.22C262.105 1542.94 263.81 1545.65 266.532 1546.27C269.255 1546.88 271.963 1545.18 272.582 1542.46C273.201 1539.73 271.496 1537.03 268.774 1536.41C266.051 1535.79 263.343 1537.49 262.724 1540.22Z" fill="#D9D9D9"/>
<circle cx="5.05513" cy="5.05513" r="5.05513" transform="matrix(-0.975116 -0.221694 -0.221694 0.975116 263.266 1567.1)" fill="#D9D9D9"/>
<circle cx="5.05513" cy="5.05513" r="5.05513" transform="matrix(-0.975116 -0.221694 -0.221694 0.975116 263.988 1505.51)" fill="#D9D9D9"/>
<circle cx="5.05513" cy="5.05513" r="5.05513" transform="matrix(0.975116 0.221694 0.221694 -0.975116 236.344 1486.38)" fill="#D9D9D9"/>
<circle cx="5.05513" cy="5.05513" r="5.05513" transform="matrix(0.975116 0.221694 0.221694 -0.975116 208 1469.86)" fill="#D9D9D9"/>
<circle cx="5.05513" cy="5.05513" r="5.05513" transform="matrix(-0.975116 -0.221694 -0.221694 0.975116 242.723 1590.92)" fill="#D9D9D9"/>
<path d="M262.724 1540.22C262.105 1542.94 263.81 1545.65 266.532 1546.27C269.255 1546.88 271.963 1545.18 272.582 1542.46C273.201 1539.73 271.496 1537.03 268.774 1536.41C266.051 1535.79 263.343 1537.49 262.724 1540.22Z" fill="#D9D9D9"/>
<circle cx="5.05513" cy="5.05513" r="5.05513" transform="matrix(-0.975116 -0.221694 -0.221694 0.975116 263.266 1567.1)" fill="#D9D9D9"/>
<circle cx="5.05513" cy="5.05513" r="5.05513" transform="matrix(-0.975116 -0.221694 -0.221694 0.975116 263.988 1505.51)" fill="#D9D9D9"/>
<circle cx="5.05513" cy="5.05513" r="5.05513" transform="matrix(0.975116 0.221694 0.221694 -0.975116 236.344 1486.38)" fill="#D9D9D9"/>
<circle cx="5.05513" cy="5.05513" r="5.05513" transform="matrix(0.975116 0.221694 0.221694 -0.975116 208 1469.86)" fill="#D9D9D9"/>
<circle cx="5.05513" cy="5.05513" r="5.05513" transform="matrix(-0.817367 -0.576117 -0.576117 0.817367 245.09 1297.43)" fill="#D9D9D9"/>
<path d="M282.882 1258.15C281.274 1260.44 281.82 1263.59 284.102 1265.2C286.384 1266.81 289.538 1266.26 291.146 1263.98C292.755 1261.7 292.209 1258.54 289.927 1256.94C287.645 1255.33 284.491 1255.87 282.882 1258.15Z" fill="#D9D9D9"/>
<path d="M257.182 926.56C255.978 929.079 257.043 932.097 259.561 933.302C262.08 934.507 265.098 933.442 266.303 930.923C267.508 928.405 266.443 925.387 263.924 924.182C261.406 922.977 258.387 924.042 257.182 926.56Z" fill="#D9D9D9"/>
<circle cx="5.05513" cy="5.05513" r="5.05513" transform="matrix(-0.817367 -0.576117 -0.576117 0.817367 273.152 1283.22)" fill="#D9D9D9"/>
<circle cx="5.05513" cy="5.05513" r="5.05513" transform="matrix(-0.90209 -0.431549 -0.431549 0.90209 249.246 949.402)" fill="#D9D9D9"/>
<circle cx="5.05513" cy="5.05513" r="5.05513" transform="matrix(-0.817367 -0.576117 -0.576117 0.817367 297.262 1226.54)" fill="#D9D9D9"/>
<circle cx="5.05513" cy="5.05513" r="5.05513" transform="matrix(-0.90209 -0.431549 -0.431549 0.90209 255.484 897.363)" fill="#D9D9D9"/>
<circle cx="5.05513" cy="5.05513" r="5.05513" transform="matrix(0.817367 0.576117 0.576117 -0.817367 278.977 1198.33)" fill="#D9D9D9"/>
<circle cx="5.05513" cy="5.05513" r="5.05513" transform="matrix(0.90209 0.431549 0.431549 -0.90209 217 883.121)" fill="#D9D9D9"/>
<circle cx="5.05513" cy="5.05513" r="5.05513" transform="matrix(0.90209 0.431549 0.431549 -0.90209 185 872.121)" fill="#D9D9D9"/>
<circle cx="5.05513" cy="5.05513" r="5.05513" transform="matrix(0.90209 0.431549 0.431549 -0.90209 155 861.121)" fill="#D9D9D9"/>
<circle cx="5.05513" cy="5.05513" r="5.05513" transform="matrix(0.817367 0.576117 0.576117 -0.817367 259.051 1172.27)" fill="#D9D9D9"/>
<circle cx="133.52" cy="1321.09" r="5.55352" transform="rotate(19.5779 133.52 1321.09)" fill="#D9D9D9"/>
</g>
<g clip-path="url(#clip1_683_590)">
<rect x="155" y="742" width="80" height="80" rx="40" fill="white" fill-opacity="0.1"/>
<path d="M177.497 782.532C177.314 783.261 177.429 783.707 177.497 784.454L186.161 794.064C187.248 794.873 187.741 795.63 189.049 795.986C190.137 796.282 190.849 796.282 191.937 795.986C193.245 795.63 193.717 794.843 194.825 794.064C194.825 794.064 213.081 775.594 213.117 774.845C213.153 774.095 213.299 773.651 213.117 772.923C212.73 771.378 211.776 770.426 210.229 770.04C209.499 769.858 209.054 770 208.303 770.04L190.974 788.298L182.31 779.649C181.562 779.575 181.114 779.467 180.385 779.649C178.837 780.036 177.883 780.988 177.497 782.532Z" fill="white" fill-opacity="0.5"/>
<rect x="148" y="434" width="80" height="80" rx="40" fill="white" fill-opacity="0.1"/>
<path d="M170.497 474.532C170.314 475.261 170.429 475.707 170.497 476.454L179.161 486.064C180.248 486.873 180.741 487.63 182.049 487.986C183.137 488.282 183.849 488.282 184.937 487.986C186.245 487.63 186.717 486.843 187.825 486.064C187.825 486.064 206.081 467.594 206.117 466.845C206.153 466.095 206.299 465.651 206.117 464.923C205.73 463.378 204.776 462.426 203.229 462.04C202.499 461.858 202.054 462 201.303 462.04L183.974 480.298L175.31 471.649C174.562 471.575 174.114 471.467 173.385 471.649C171.837 472.036 170.883 472.988 170.497 474.532Z" fill="white" fill-opacity="0.5"/>
<rect x="179" y="258" width="80" height="80" rx="40" fill="white" fill-opacity="0.1"/>
<path d="M201.497 298.532C201.314 299.261 201.429 299.707 201.497 300.454L210.161 310.064C211.248 310.873 211.741 311.63 213.049 311.986C214.137 312.282 214.849 312.282 215.937 311.986C217.245 311.63 217.717 310.843 218.825 310.064C218.825 310.064 237.081 291.594 237.117 290.845C237.153 290.095 237.299 289.651 237.117 288.923C236.73 287.378 235.776 286.426 234.229 286.04C233.499 285.858 233.054 286 232.303 286.04L214.974 304.298L206.31 295.649C205.562 295.575 205.114 295.467 204.385 295.649C202.837 296.036 201.883 296.988 201.497 298.532Z" fill="white" fill-opacity="0.5"/>
<rect x="122" y="571" width="80" height="80" rx="40" fill="white" fill-opacity="0.1"/>
<path d="M144.497 611.532C144.314 612.261 144.429 612.707 144.497 613.454L153.161 623.064C154.248 623.873 154.741 624.63 156.049 624.986C157.137 625.282 157.849 625.282 158.937 624.986C160.245 624.63 160.717 623.843 161.825 623.064C161.825 623.064 180.081 604.594 180.117 603.845C180.153 603.095 180.299 602.651 180.117 601.923C179.73 600.378 178.776 599.426 177.229 599.04C176.499 598.858 176.054 599 175.303 599.04L157.974 617.298L149.31 608.649C148.562 608.575 148.114 608.467 147.385 608.649C145.837 609.036 144.883 609.988 144.497 611.532Z" fill="white" fill-opacity="0.5"/>
<path d="M152.657 248.062C152.116 251.081 149.23 253.09 146.211 252.549C143.192 252.008 141.183 249.122 141.724 246.103C142.265 243.084 145.151 241.075 148.17 241.616C151.189 242.157 153.198 245.043 152.657 248.062Z" fill="#D9D9D9"/>
<circle cx="99.0239" cy="555.207" r="5.55352" transform="rotate(19.5779 99.0239 555.207)" fill="#D9D9D9"/>
<circle cx="116.497" cy="578.437" r="5.55352" transform="rotate(19.5779 116.497 578.437)" fill="#D9D9D9"/>
<circle cx="170.923" cy="268.191" r="5.55352" transform="rotate(-169.842 170.923 268.191)" fill="#D9D9D9"/>
<circle cx="155.05" cy="187.446" r="5.55352" transform="rotate(10.1582 155.05 187.446)" fill="#D9D9D9"/>
<circle cx="105.438" cy="495.539" r="5.55352" transform="rotate(19.5779 105.438 495.539)" fill="#D9D9D9"/>
<circle cx="220.243" cy="-5.38524" r="5.55352" transform="rotate(177.318 220.243 -5.38524)" fill="#D9D9D9"/>
<path d="M148.911 218.062C148.37 221.081 145.484 223.09 142.465 222.549C139.446 222.008 137.437 219.122 137.978 216.103C138.519 213.084 141.404 211.075 144.423 211.616C147.443 212.157 149.451 215.043 148.911 218.062Z" fill="#D9D9D9"/>
<path d="M95.3266 527.501C94.2989 530.391 91.1231 531.9 88.2333 530.873C85.3435 529.845 83.834 526.669 84.8617 523.779C85.8895 520.89 89.0653 519.38 91.9551 520.408C94.8449 521.436 96.3544 524.611 95.3266 527.501Z" fill="#D9D9D9"/>
<circle cx="5.05513" cy="5.05513" r="5.05513" transform="matrix(-0.975116 -0.221694 -0.221694 0.975116 242.723 746.922)" fill="#D9D9D9"/>
<path d="M262.724 696.215C262.105 698.938 263.81 701.646 266.532 702.265C269.255 702.884 271.963 701.179 272.582 698.457C273.201 695.734 271.496 693.026 268.774 692.407C266.051 691.788 263.343 693.493 262.724 696.215Z" fill="#D9D9D9"/>
<circle cx="5.05513" cy="5.05513" r="5.05513" transform="matrix(-0.975116 -0.221694 -0.221694 0.975116 263.266 723.102)" fill="#D9D9D9"/>
<circle cx="5.05513" cy="5.05513" r="5.05513" transform="matrix(-0.975116 -0.221694 -0.221694 0.975116 263.988 661.508)" fill="#D9D9D9"/>
<circle cx="5.05513" cy="5.05513" r="5.05513" transform="matrix(0.975116 0.221694 0.221694 -0.975116 236.344 642.375)" fill="#D9D9D9"/>
<circle cx="5.05513" cy="5.05513" r="5.05513" transform="matrix(0.975116 0.221694 0.221694 -0.975116 208 625.859)" fill="#D9D9D9"/>
<circle cx="5.05513" cy="5.05513" r="5.05513" transform="matrix(-0.975116 -0.221694 -0.221694 0.975116 242.723 746.922)" fill="#D9D9D9"/>
<path d="M262.724 696.215C262.105 698.938 263.81 701.646 266.532 702.265C269.255 702.884 271.963 701.179 272.582 698.457C273.201 695.734 271.496 693.026 268.774 692.407C266.051 691.788 263.343 693.493 262.724 696.215Z" fill="#D9D9D9"/>
<circle cx="5.05513" cy="5.05513" r="5.05513" transform="matrix(-0.975116 -0.221694 -0.221694 0.975116 263.266 723.102)" fill="#D9D9D9"/>
<circle cx="5.05513" cy="5.05513" r="5.05513" transform="matrix(-0.975116 -0.221694 -0.221694 0.975116 263.988 661.508)" fill="#D9D9D9"/>
<circle cx="5.05513" cy="5.05513" r="5.05513" transform="matrix(0.975116 0.221694 0.221694 -0.975116 236.344 642.375)" fill="#D9D9D9"/>
<circle cx="5.05513" cy="5.05513" r="5.05513" transform="matrix(0.975116 0.221694 0.221694 -0.975116 208 625.859)" fill="#D9D9D9"/>
<circle cx="5.05513" cy="5.05513" r="5.05513" transform="matrix(-0.817367 -0.576117 -0.576117 0.817367 245.09 453.434)" fill="#D9D9D9"/>
<path d="M282.882 414.155C281.274 416.437 281.82 419.591 284.102 421.199C286.384 422.808 289.538 422.262 291.146 419.98C292.755 417.698 292.209 414.544 289.927 412.935C287.645 411.327 284.491 411.873 282.882 414.155Z" fill="#D9D9D9"/>
<circle cx="5.05513" cy="5.05513" r="5.05513" transform="matrix(-0.817367 -0.576117 -0.576117 0.817367 273.152 439.223)" fill="#D9D9D9"/>
<circle cx="5.05513" cy="5.05513" r="5.05513" transform="matrix(-0.817367 -0.576117 -0.576117 0.817367 297.262 382.543)" fill="#D9D9D9"/>
<circle cx="5.05513" cy="5.05513" r="5.05513" transform="matrix(0.817367 0.576117 0.576117 -0.817367 278.977 354.328)" fill="#D9D9D9"/>
<circle cx="5.05513" cy="5.05513" r="5.05513" transform="matrix(0.817367 0.576117 0.576117 -0.817367 259.051 328.266)" fill="#D9D9D9"/>
<circle cx="133.52" cy="477.093" r="5.55352" transform="rotate(19.5779 133.52 477.093)" fill="#D9D9D9"/>
<circle cx="5.05513" cy="5.05513" r="5.05513" transform="matrix(0.90209 0.431549 0.431549 -0.90209 135 835.121)" fill="#D9D9D9"/>
<circle cx="5.05513" cy="5.05513" r="5.05513" transform="matrix(0.90209 0.431549 0.431549 -0.90209 144 810.121)" fill="#D9D9D9"/>
<circle cx="203" cy="105" r="80" fill="url(#paint0_linear_683_590)"/>
<rect x="123" y="25" width="160" height="160" rx="80" fill="white" fill-opacity="0.1"/>
<path d="M241.332 141.333C234.845 141.333 228.359 139.14 222.665 135.127C211.279 143.107 196.719 143.107 185.332 135.127C179.639 139.14 173.152 141.333 166.665 141.333H157.332V150.667H166.665C173.059 150.667 179.452 149.033 185.332 146C196.999 152.067 210.999 152.067 222.665 146C228.545 149.033 234.892 150.667 241.332 150.667H250.665V141.333H241.332ZM244.972 136.667H241.332C235.825 136.667 230.319 134.8 225.372 131.3L222.665 129.433L219.959 131.3C215.152 134.66 209.645 136.433 203.999 136.433C198.259 136.433 192.752 134.66 187.945 131.3L185.332 129.433L182.672 131.3C177.679 134.8 172.172 136.667 166.665 136.667H163.025C165.499 129.853 174.039 118 203.999 118C213.332 118 217.999 119.12 217.999 119.12C221.172 112.727 226.539 98.2601 222.665 79.8268L227.612 83.1401C229.152 89.8134 231.999 102.833 226.399 121.033C238.672 125 243.292 132 244.972 136.667ZM250.665 83.4201C246.979 78.3334 241.332 74.6468 234.705 73.8068C235.265 74.4601 235.779 75.2068 236.292 76.0001C238.951 80.2465 240.182 85.2324 239.804 90.2285C239.426 95.2245 237.46 99.9686 234.192 103.767C236.945 97.0001 236.665 89.0201 232.372 82.3468C231.999 81.9734 231.812 81.6001 231.532 81.1801C229.665 78.4734 227.145 76.2801 224.439 74.6934C214.965 77.7268 208.105 86.5934 208.105 97.0001C208.105 99.4734 208.479 101.807 209.132 104C206.332 100.127 204.745 95.4601 204.745 90.3268C204.745 82.5801 208.479 75.7668 214.265 71.4734C209.412 71.1001 204.419 72.1734 199.985 74.9734C197.932 76.2334 196.159 77.7734 194.665 79.5468C196.485 75.1601 199.565 71.3334 203.999 68.5334C208.684 65.5195 214.317 64.3398 219.819 65.2201C218.428 63.2913 216.761 61.5775 214.872 60.1334C212.959 58.6868 210.859 57.5668 208.665 56.7734C213.332 56.9134 218.185 58.4534 222.245 61.4868C224.299 63.0268 225.932 64.8934 227.332 66.9001C227.612 66.9001 227.892 66.8534 228.219 66.8534C233.24 66.8508 238.13 68.4584 242.17 71.4403C246.21 74.4221 249.188 78.621 250.665 83.4201Z" fill="white"/>
<circle cx="173.042" cy="71.0423" r="11.0423" fill="white"/>
</g>
<defs>
<linearGradient id="paint0_linear_683_590" x1="178" y1="41" x2="223.5" y2="171.5" gradientUnits="userSpaceOnUse">
<stop stop-color="#695FFA"/>
<stop offset="1" stop-color="#3B0B9A"/>
</linearGradient>
<clipPath id="clip0_683_590">
<rect width="390" height="844" fill="white" transform="translate(0 844)"/>
</clipPath>
<clipPath id="clip1_683_590">
<rect width="390" height="844" fill="white"/>
</clipPath>
</defs>
</svg>
