<svg width="718" height="715" viewBox="0 0 718 715" fill="none" xmlns="http://www.w3.org/2000/svg">
<g filter="url(#filter0_d_737_1365)">
<rect x="6.32031" y="3.16016" width="710" height="710" rx="355" fill="black" fill-opacity="0.01" shape-rendering="crispEdges"/>
<circle cx="361.82" cy="358.66" r="355.5" fill="url(#paint0_linear_737_1365)" fill-opacity="0.4"/>
<rect x="6.32031" y="3.16016" width="711" height="711" rx="355.5" fill="white" fill-opacity="0.1"/>
<path d="M261.852 291.111V335.953C261.852 338.926 263.164 341.777 265.5 343.88C267.836 345.982 271.004 347.163 274.308 347.163H361.501C364.805 347.163 367.973 345.982 370.309 343.88C372.645 341.777 373.957 338.926 373.957 335.953V291.111M261.852 291.111V279.9C261.852 276.927 263.164 274.075 265.5 271.973C267.836 269.871 271.004 268.689 274.308 268.689H361.501C364.805 268.689 367.973 269.871 370.309 271.973C372.645 274.075 373.957 276.927 373.957 279.9V291.111M261.852 291.111H373.957M286.764 313.532H317.904" stroke="white" stroke-width="9.02757" stroke-linecap="round" stroke-linejoin="round"/>
<path d="M351.539 392.003V436.845C351.539 439.818 352.851 442.67 355.187 444.772C357.523 446.875 360.692 448.056 363.995 448.056H451.189C454.492 448.056 457.66 446.875 459.996 444.772C462.332 442.67 463.645 439.818 463.645 436.845V392.003M351.539 392.003V380.793C351.539 377.819 352.851 374.968 355.187 372.866C357.523 370.763 360.692 369.582 363.995 369.582H451.189C454.492 369.582 457.66 370.763 459.996 372.866C462.332 374.968 463.645 377.819 463.645 380.793V392.003M351.539 392.003H463.645M376.451 414.424H407.592" stroke="white" stroke-width="9.02757" stroke-linecap="round" stroke-linejoin="round"/>
<path d="M309.065 361.734C307.74 360.416 305.596 360.421 304.278 361.747L282.791 383.348C281.472 384.674 281.478 386.817 282.803 388.136C284.129 389.454 286.273 389.449 287.591 388.123L306.691 368.922L325.892 388.021C327.217 389.34 329.361 389.334 330.679 388.009C331.998 386.683 331.992 384.54 330.667 383.221L309.065 361.734ZM340.345 420.036L340.355 416.65C332.938 416.63 327.558 415.602 323.596 413.715C319.732 411.874 317.023 409.124 315.055 405.213C313.037 401.202 311.771 395.908 311.028 389.011C310.287 382.131 310.089 373.901 310.063 364.125L306.678 364.134L303.293 364.143C303.319 373.942 303.515 382.477 304.296 389.736C305.076 396.977 306.461 403.195 309.007 408.256C311.603 413.416 315.371 417.296 320.683 419.827C325.898 422.311 332.393 423.399 340.336 423.421L340.345 420.036Z" fill="white"/>
<path d="M417.441 358.438C418.666 359.851 420.804 360.002 422.216 358.777L445.232 338.813C446.644 337.588 446.796 335.449 445.571 334.037C444.346 332.625 442.208 332.473 440.795 333.698L420.337 351.444L402.591 330.986C401.365 329.574 399.227 329.422 397.815 330.647C396.403 331.872 396.251 334.01 397.476 335.423L417.441 358.438ZM390.494 298.012L390.241 301.388C397.644 301.944 402.94 303.358 406.757 305.528C410.478 307.644 412.98 310.583 414.657 314.626C416.377 318.773 417.252 324.146 417.486 331.082C417.72 337.999 417.314 346.225 416.621 355.98L419.998 356.22L423.375 356.46C424.069 346.681 424.5 338.152 424.253 330.853C424.007 323.572 423.082 317.267 420.912 312.033C418.699 306.696 415.221 302.552 410.103 299.642C405.08 296.786 398.676 295.232 390.748 294.636L390.494 298.012Z" fill="white"/>
</g>
<defs>
<filter id="filter0_d_737_1365" x="0.000312328" y="0.000156164" width="717.32" height="714.16" filterUnits="userSpaceOnUse" color-interpolation-filters="sRGB">
<feFlood flood-opacity="0" result="BackgroundImageFix"/>
<feColorMatrix in="SourceAlpha" type="matrix" values="0 0 0 0 0 0 0 0 0 0 0 0 0 0 0 0 0 0 127 0" result="hardAlpha"/>
<feOffset dx="-6.32" dy="-3.16"/>
<feComposite in2="hardAlpha" operator="out"/>
<feColorMatrix type="matrix" values="0 0 0 0 1 0 0 0 0 1 0 0 0 0 1 0 0 0 1 0"/>
<feBlend mode="normal" in2="BackgroundImageFix" result="effect1_dropShadow_737_1365"/>
<feBlend mode="normal" in="BackgroundImageFix" in2="effect1_dropShadow_737_1365" result="BackgroundImageFix"/>
<feBlend mode="normal" in="SourceGraphic" in2="BackgroundImageFix" result="shape"/>
</filter>
<linearGradient id="paint0_linear_737_1365" x1="546.68" y1="632.395" x2="155.63" y2="84.9252" gradientUnits="userSpaceOnUse">
<stop stop-color="#100778"/>
<stop offset="1" stop-color="#761EFB"/>
</linearGradient>
</defs>
</svg>
