<svg width="711" height="711" viewBox="0 0 711 711" fill="none" xmlns="http://www.w3.org/2000/svg">
<rect width="710" height="710" rx="355" fill="black" fill-opacity="0.01"/>
<circle cx="355.5" cy="355.5" r="355.5" fill="url(#paint0_linear_737_1414)" fill-opacity="0.4"/>
<rect width="711" height="711" rx="355.5" fill="white" fill-opacity="0.1"/>
<path d="M345.669 251.781C349.028 242.703 361.972 242.702 365.331 251.781L365.486 252.228L385.587 314.09H450.632C460.803 314.09 465.033 327.105 456.804 333.084L404.181 371.316L424.281 433.18C427.424 442.853 416.352 450.898 408.123 444.919L355.5 406.686L302.877 444.919C294.648 450.898 283.576 442.853 286.719 433.18L306.818 371.316L254.196 333.084C245.967 327.105 250.197 314.09 260.368 314.09H325.413L345.514 252.228L345.669 251.781Z" stroke="white" stroke-width="17"/>
<defs>
<linearGradient id="paint0_linear_737_1414" x1="540.36" y1="629.235" x2="149.31" y2="81.765" gradientUnits="userSpaceOnUse">
<stop stop-color="#100778"/>
<stop offset="1" stop-color="#761EFB"/>
</linearGradient>
</defs>
</svg>
