<svg width="711" height="711" viewBox="0 0 711 711" fill="none" xmlns="http://www.w3.org/2000/svg">
<rect width="710" height="710" rx="355" fill="black" fill-opacity="0.01"/>
<circle cx="355.5" cy="355.5" r="355.5" fill="url(#paint0_linear_737_1365)" fill-opacity="0.4"/>
<rect width="711" height="711" rx="355.5" fill="white" fill-opacity="0.1"/>
<path d="M255.531 287.95V332.792C255.531 335.766 256.844 338.617 259.18 340.72C261.516 342.822 264.684 344.003 267.987 344.003H355.181C358.484 344.003 361.653 342.822 363.989 340.72C366.325 338.617 367.637 335.766 367.637 332.792V287.95M255.531 287.95V276.74C255.531 273.767 256.844 270.915 259.18 268.813C261.516 266.71 264.684 265.529 267.987 265.529H355.181C358.484 265.529 361.653 266.71 363.989 268.813C366.325 270.915 367.637 273.767 367.637 276.74V287.95M255.531 287.95H367.637M280.444 310.371H311.584" stroke="white" stroke-width="9.02757" stroke-linecap="round" stroke-linejoin="round"/>
<path d="M345.219 388.843V433.685C345.219 436.658 346.531 439.51 348.867 441.612C351.203 443.714 354.371 444.896 357.675 444.896H444.868C448.172 444.896 451.34 443.714 453.676 441.612C456.012 439.51 457.324 436.658 457.324 433.685V388.843M345.219 388.843V377.632C345.219 374.659 346.531 371.808 348.867 369.705C351.203 367.603 354.371 366.422 357.675 366.422H444.868C448.172 366.422 451.34 367.603 453.676 369.705C456.012 371.808 457.324 374.659 457.324 377.632V388.843M345.219 388.843H457.324M370.131 411.264H401.272" stroke="white" stroke-width="9.02757" stroke-linecap="round" stroke-linejoin="round"/>
<path d="M302.745 358.574C301.419 357.256 299.276 357.261 297.957 358.587L276.47 380.188C275.152 381.514 275.158 383.657 276.483 384.976C277.809 386.294 279.952 386.288 281.271 384.963L300.37 365.762L319.571 384.861C320.897 386.18 323.04 386.174 324.359 384.849C325.678 383.523 325.672 381.38 324.346 380.061L302.745 358.574ZM334.025 416.875L334.034 413.49C326.618 413.47 321.237 412.442 317.276 410.555C313.412 408.714 310.703 405.964 308.735 402.053C306.717 398.042 305.451 392.748 304.708 385.851C303.967 378.971 303.769 370.741 303.743 360.965L300.358 360.974L296.972 360.983C296.998 370.782 297.194 379.317 297.976 386.575C298.756 393.817 300.14 400.035 302.686 405.096C305.282 410.256 309.05 414.135 314.363 416.667C319.578 419.151 326.073 420.239 334.016 420.261L334.025 416.875Z" fill="white"/>
<path d="M411.12 355.278C412.346 356.69 414.484 356.842 415.896 355.617L438.912 335.653C440.324 334.427 440.476 332.289 439.251 330.877C438.025 329.465 435.887 329.313 434.475 330.538L414.017 348.284L396.27 327.826C395.045 326.414 392.907 326.262 391.495 327.487C390.082 328.712 389.931 330.85 391.156 332.263L411.12 355.278ZM384.174 294.852L383.92 298.228C391.324 298.784 396.62 300.198 400.436 302.368C404.158 304.484 406.66 307.423 408.337 311.466C410.056 315.613 410.931 320.986 411.166 327.922C411.4 334.839 410.993 343.065 410.301 352.82L413.678 353.06L417.055 353.3C417.749 343.521 418.18 334.992 417.933 327.693C417.687 320.412 416.761 314.106 414.591 308.873C412.378 303.536 408.901 299.392 403.783 296.482C398.76 293.626 392.355 292.072 384.428 291.476L384.174 294.852Z" fill="white"/>
<defs>
<linearGradient id="paint0_linear_737_1365" x1="540.36" y1="629.235" x2="149.31" y2="81.765" gradientUnits="userSpaceOnUse">
<stop stop-color="#100778"/>
<stop offset="1" stop-color="#761EFB"/>
</linearGradient>
</defs>
</svg>
