<svg width="100" height="100" viewBox="0 0 100 100" fill="none" xmlns="http://www.w3.org/2000/svg">
<circle cx="50" cy="50" r="50" fill="#281F93"/>
<rect width="100" height="100" rx="50" fill="white" fill-opacity="0.1"/>
<path d="M42.92 52.0267C43.1401 52.3603 43.4419 52.6322 43.7965 52.8165C44.1512 53.0009 44.5471 53.0916 44.9467 53.08M44.9467 53.08C45.4924 53.1283 46.0352 52.9594 46.4571 52.6099C46.879 52.2604 47.1459 51.7585 47.2 51.2133C47.1492 50.6657 46.8837 50.1605 46.4614 49.8082C46.0391 49.4559 45.4945 49.2852 44.9467 49.3333C44.401 49.3778 43.8598 49.2054 43.4405 48.8534C43.0212 48.5015 42.7575 47.9984 42.7067 47.4533C42.7608 46.9107 43.0259 46.4109 43.4448 46.0618C43.8638 45.7126 44.4031 45.542 44.9467 45.5867M44.9467 53.08V54.3333M44.9467 45.5867C45.3469 45.5712 45.7442 45.6602 46.0995 45.8449C46.4549 46.0296 46.756 46.3036 46.9733 46.64M44.9467 45.5867V44.3333M52.6667 54.3333V50.3333M57.3333 54.3333V46.3333M36 35H64C64 35 65 35 65 36V39.3333C65 39.3333 65 40.3333 64 40.3333H36C36 40.3333 35 40.3333 35 39.3333V36C35 36 35 35 36 35Z" stroke="white" stroke-width="1.5" stroke-linecap="round" stroke-linejoin="round"/>
<path d="M50 63.6654V57.9987M50 63.6654C51.1067 63.6654 52 64.2654 52 64.9987M50 63.6654C48.8933 63.6654 48 64.2654 48 64.9987M35 57.9987H65M37 40.332H63V57.9987H37V40.332Z" stroke="white" stroke-width="1.5" stroke-linecap="round" stroke-linejoin="round"/>
</svg>
